<svg xmlns="http://www.w3.org/2000/svg" xmlns:xlink="http://www.w3.org/1999/xlink" contentStyleType="text/css" data-diagram-type="DESCRIPTION" height="516px" preserveAspectRatio="none" style="width:654px;height:516px;background:#FFFFFF;" version="1.1" viewBox="0 0 654 516" width="654px" zoomAndPan="magnify"><?plantuml 1.2026.3beta6?><defs/><g><!--cluster Sistema - Agente Revisor IA--><g class="cluster" data-qualified-name="Sistema - Agente Revisor IA" data-source-line="5" id="ent0005"><rect fill="none" height="438" rx="2.5" ry="2.5" style="stroke:#181818;stroke-width:1;" width="491.07" x="149.08" y="7"/><text fill="#000000" font-family="sans-serif" font-size="14" font-weight="700" lengthAdjust="spacing" textLength="220.3496" x="284.4402" y="21.9951">Sistema - Agente Revisor IA</text></g><!--entity R1--><g class="entity" data-qualified-name="Sistema - Agente Revisor IA.R1" data-source-line="6" id="ent0006"><ellipse cx="276.0967" cy="122.0036" fill="#F1F1F1" rx="59.4967" ry="14.5236" style="stroke:#181818;stroke-width:0.5;"/><text fill="#000000" font-family="sans-serif" font-size="14" lengthAdjust="spacing" textLength="79.8984" x="236.1475" y="126.6521">Registrarse</text></g><!--entity R2--><g class="entity" data-qualified-name="Sistema - Agente Revisor IA.R2" data-source-line="7" id="ent0007"><ellipse cx="276.1011" cy="57.0042" fill="#F1F1F1" rx="64.3711" ry="15.2742" style="stroke:#181818;stroke-width:0.5;"/><text fill="#000000" font-family="sans-serif" font-size="14" lengthAdjust="spacing" textLength="91.793" x="230.2046" y="61.6527">Iniciar sesi&#243;n</text></g><!--entity R3--><g class="entity" data-qualified-name="Sistema - Agente Revisor IA.R3" data-source-line="8" id="ent0008"><ellipse cx="276.0967" cy="270.0036" fill="#F1F1F1" rx="54.8467" ry="14.5236" style="stroke:#181818;stroke-width:0.5;"/><text fill="#000000" font-family="sans-serif" font-size="14" lengthAdjust="spacing" textLength="73.3223" x="239.4355" y="274.6521">Subir tesis</text></g><!--entity R4--><g class="entity" data-qualified-name="Sistema - Agente Revisor IA.R4" data-source-line="9" id="ent0009"><ellipse cx="276.1018" cy="196.0044" fill="#F1F1F1" rx="111.0218" ry="24.6044" style="stroke:#181818;stroke-width:0.5;"/><text fill="#000000" font-family="sans-serif" font-size="14" lengthAdjust="spacing" textLength="200.0879" x="176.0579" y="200.6528">Solicitar revisi&#243;n autom&#225;tica</text></g><!--entity R5--><g class="entity" data-qualified-name="Sistema - Agente Revisor IA.R5" data-source-line="10" id="ent0010"><ellipse cx="276.1034" cy="410.0007" fill="#F1F1F1" rx="82.5034" ry="18.9007" style="stroke:#181818;stroke-width:0.5;"/><text fill="#000000" font-family="sans-serif" font-size="14" lengthAdjust="spacing" textLength="136.541" x="207.8329" y="414.6491">Revisar y comentar</text></g><!--entity R6--><g class="entity" data-qualified-name="Sistema - Agente Revisor IA.R6" data-source-line="11" id="ent0011"><ellipse cx="535.6414" cy="409.0023" fill="#F1F1F1" rx="88.5114" ry="20.1023" style="stroke:#181818;stroke-width:0.5;"/><text fill="#000000" font-family="sans-serif" font-size="14" lengthAdjust="spacing" textLength="150.3633" x="460.4598" y="413.6507">Generar informe final</text></g><!--entity R7--><g class="entity" data-qualified-name="Sistema - Agente Revisor IA.R7" data-source-line="12" id="ent0012"><ellipse cx="276.1023" cy="337.9985" fill="#F1F1F1" rx="80.3423" ry="18.4685" style="stroke:#181818;stroke-width:0.5;"/><text fill="#000000" font-family="sans-serif" font-size="14" lengthAdjust="spacing" textLength="131.4824" x="210.3611" y="342.6469">Gestionar usuarios</text></g><!--entity Estudiante--><g class="entity" data-qualified-name="Estudiante" data-source-line="2" id="ent0002"><ellipse cx="55.5365" cy="129.35" fill="#F1F1F1" rx="8" ry="8" style="stroke:#181818;stroke-width:0.5;"/><path d="M55.5365,137.35 L55.5365,164.35 M42.5365,145.35 L68.5365,145.35 M55.5365,164.35 L42.5365,179.35 M55.5365,164.35 L68.5365,179.35" fill="none" style="stroke:#181818;stroke-width:0.5;"/><text fill="#000000" font-family="sans-serif" font-size="14" lengthAdjust="spacing" textLength="74.833" x="18.12" y="193.8451">Estudiante</text></g><!--entity Revisor--><g class="entity" data-qualified-name="Revisor" data-source-line="3" id="ent0003"><ellipse cx="55.5354" cy="435.35" fill="#F1F1F1" rx="8" ry="8" style="stroke:#181818;stroke-width:0.5;"/><path d="M55.5354,443.35 L55.5354,470.35 M42.5354,451.35 L68.5354,451.35 M55.5354,470.35 L42.5354,485.35 M55.5354,470.35 L68.5354,485.35" fill="none" style="stroke:#181818;stroke-width:0.5;"/><text fill="#000000" font-family="sans-serif" font-size="14" lengthAdjust="spacing" textLength="52.1309" x="29.47" y="499.8451">Revisor</text></g><!--entity Administrador--><g class="entity" data-qualified-name="Administrador" data-source-line="4" id="ent0004"><ellipse cx="55.54" cy="308.35" fill="#F1F1F1" rx="8" ry="8" style="stroke:#181818;stroke-width:0.5;"/><path d="M55.54,316.35 L55.54,343.35 M42.54,324.35 L68.54,324.35 M55.54,343.35 L42.54,358.35 M55.54,343.35 L68.54,358.35" fill="none" style="stroke:#181818;stroke-width:0.5;"/><text fill="#000000" font-family="sans-serif" font-size="14" lengthAdjust="spacing" textLength="99.0801" x="6" y="372.8451">Administrador</text></g><!--link Estudiante to R1--><g class="link" data-entity-1="ent0002" data-entity-2="ent0006" data-link-type="dependency" data-source-line="14" id="lnk13"><path d="M93.12,152.81 C129.58,146.64 179.8741,138.1211 220.1741,131.3011" fill="none" id="Estudiante-to-R1" style="stroke:#181818;stroke-width:1;"/><polygon fill="#181818" points="226.09,130.3,216.5487,127.8578,221.1601,131.1343,217.8836,135.7456,226.09,130.3" style="stroke:#181818;stroke-width:1;"/></g><!--link Estudiante to R2--><g class="link" data-entity-1="ent0002" data-entity-2="ent0007" data-link-type="dependency" data-source-line="15" id="lnk14"><path d="M93.16,123.15 C107.19,111.09 123.96,98.55 141.08,90 C165.63,77.75 189.1456,71.0222 214.1456,66.0422" fill="none" id="Estudiante-to-R2" style="stroke:#181818;stroke-width:1;"/><polygon fill="#181818" points="220.03,64.87,210.422,62.7053,215.1263,65.8468,211.9849,70.5512,220.03,64.87" style="stroke:#181818;stroke-width:1;"/></g><!--link Estudiante to R3--><g class="link" data-entity-1="ent0002" data-entity-2="ent0008" data-link-type="dependency" data-source-line="16" id="lnk15"><path d="M89.47,197.39 C103.94,212.07 121.97,227.73 141.08,238 C167,251.93 193.0358,258.8491 219.2458,263.3291" fill="none" id="Estudiante-to-R3" style="stroke:#181818;stroke-width:1;"/><polygon fill="#181818" points="225.16,264.34,216.9626,258.8808,220.2315,263.4976,215.6147,266.7665,225.16,264.34" style="stroke:#181818;stroke-width:1;"/></g><!--link Estudiante to R4--><g class="link" data-entity-1="ent0002" data-entity-2="ent0009" data-link-type="dependency" data-source-line="17" id="lnk16"><path d="M93.12,165.19 C118.76,169.54 148.2642,174.5281 181.0342,180.0781" fill="none" id="Estudiante-to-R4" style="stroke:#181818;stroke-width:1;"/><polygon fill="#181818" points="186.95,181.08,178.7443,175.6333,182.0202,180.2451,177.4084,183.521,186.95,181.08" style="stroke:#181818;stroke-width:1;"/></g><!--link Revisor to R5--><g class="link" data-entity-1="ent0003" data-entity-2="ent0010" data-link-type="dependency" data-source-line="18" id="lnk17"><path d="M82.04,458.58 C115.48,450.17 169.2713,436.6339 213.4313,425.5239" fill="none" id="Revisor-to-R5" style="stroke:#181818;stroke-width:1;"/><polygon fill="#181818" points="219.25,424.06,209.5461,422.3767,214.4011,425.2799,211.4979,430.135,219.25,424.06" style="stroke:#181818;stroke-width:1;"/></g><!--link Revisor to R6--><g class="link" data-entity-1="ent0003" data-entity-2="ent0011" data-link-type="dependency" data-source-line="19" id="lnk18"><path d="M82.01,465.16 C137.69,465.17 274.32,463.23 387.12,446 C418.57,441.2 447.3148,434.3112 475.0548,426.6812" fill="none" id="Revisor-to-R6" style="stroke:#181818;stroke-width:1;"/><polygon fill="#181818" points="480.84,425.09,471.1015,423.6201,476.019,426.416,473.2231,431.3336,480.84,425.09" style="stroke:#181818;stroke-width:1;"/></g><!--link Administrador to R7--><g class="link" data-entity-1="ent0004" data-entity-2="ent0012" data-link-type="dependency" data-source-line="20" id="lnk19"><path d="M105.32,338 C131.86,338 159.37,338 189.58,338" fill="none" id="Administrador-to-R7" style="stroke:#181818;stroke-width:1;"/><polygon fill="#181818" points="195.58,338,186.58,334,190.58,338,186.58,342,195.58,338" style="stroke:#181818;stroke-width:1;"/></g><!--link R5 to R6--><g class="link" data-entity-1="ent0010" data-entity-2="ent0011" data-link-type="dependency" data-source-line="21" id="lnk20"><path d="M358.94,409.68 C386.92,409.58 412.33,409.4732 440.77,409.3632" fill="none" id="R5-to-R6" style="stroke:#181818;stroke-width:1;"/><polygon fill="#181818" points="446.77,409.34,437.7546,405.3748,441.77,409.3593,437.7855,413.3748,446.77,409.34" style="stroke:#181818;stroke-width:1;"/></g><?plantuml-src PP0nRiCm34LtdOB8b0uUciJ9Li13K6HrJi3Qj4l0bW2ABX0KFKpFq2FaOgKi1qMQaU_nGzGVg5FG0CBzkqBBGeroy0uR3GB7g5FBw9KMKDC7no3BLBKZUuugs1fBKVJzGB0w6wGHeO2g9qlVSd2gLl3f0DOrzNDG8Zq1HgYV4prvRXW58aM-_lXiDicSfpSMKECnq-rCms01jOIa1r86SD8mNh-L6yoRk_oUUTkxG1D6EmabopB9L_9afm3xBiX8qB778VjzzZ6LOXjJd50uB3SSt9VxgmYAuYNzup_PF93j0zcvMqFpMDwFUtVNT8O7LvUB_WK0?></g></svg>