<svg xmlns="http://www.w3.org/2000/svg" xmlns:xlink="http://www.w3.org/1999/xlink" contentStyleType="text/css" data-diagram-type="ACTIVITY" height="631px" preserveAspectRatio="none" style="width:287px;height:631px;background:#FFFFFF;" version="1.1" viewBox="0 0 287 631" width="287px" zoomAndPan="magnify"><?plantuml 1.2026.3beta6?><defs/><g><ellipse cx="134.8467" cy="25" fill="#222222" rx="10" ry="10" style="stroke:#222222;stroke-width:1;"/><rect fill="#F1F1F1" height="33.9688" rx="12.5" ry="12.5" style="stroke:#181818;stroke-width:0.5;" width="181.3086" x="44.1924" y="55"/><text fill="#000000" font-family="sans-serif" font-size="12" lengthAdjust="spacing" textLength="161.3086" x="54.1924" y="76.1387">Estudiante solicita revisi&#243;n</text><rect fill="#F1F1F1" height="33.9688" rx="12.5" ry="12.5" style="stroke:#181818;stroke-width:0.5;" width="237.6934" x="16" y="108.9688"/><text fill="#000000" font-family="sans-serif" font-size="12" lengthAdjust="spacing" textLength="217.6934" x="26" y="130.1074">Env&#237;a documento por correo o Drive</text><rect fill="#F1F1F1" height="33.9688" rx="12.5" ry="12.5" style="stroke:#181818;stroke-width:0.5;" width="233.0117" x="18.3408" y="162.9375"/><text fill="#000000" font-family="sans-serif" font-size="12" lengthAdjust="spacing" textLength="213.0117" x="28.3408" y="184.0762">Asesor descarga y abre documento</text><rect fill="#F1F1F1" height="33.9688" rx="12.5" ry="12.5" style="stroke:#181818;stroke-width:0.5;" width="203.6328" x="33.0303" y="216.9063"/><text fill="#000000" font-family="sans-serif" font-size="12" lengthAdjust="spacing" textLength="183.6328" x="43.0303" y="238.0449">Asesor revisa y anota cambios</text><rect fill="#F1F1F1" height="33.9688" rx="12.5" ry="12.5" style="stroke:#181818;stroke-width:0.5;" width="187.2734" x="41.21" y="270.875"/><text fill="#000000" font-family="sans-serif" font-size="12" lengthAdjust="spacing" textLength="167.2734" x="51.21" y="292.0137">Asesor env&#237;a observaciones</text><rect fill="#F1F1F1" height="33.9688" rx="12.5" ry="12.5" style="stroke:#181818;stroke-width:0.5;" width="215.5156" x="27.0889" y="324.8438"/><text fill="#000000" font-family="sans-serif" font-size="12" lengthAdjust="spacing" textLength="195.5156" x="37.0889" y="345.9824">Estudiante recibe observaciones</text><rect fill="#F1F1F1" height="33.9688" rx="12.5" ry="12.5" style="stroke:#181818;stroke-width:0.5;" width="184.8887" x="42.4023" y="427.2148"/><text fill="#000000" font-family="sans-serif" font-size="12" lengthAdjust="spacing" textLength="164.8887" x="52.4023" y="448.3535">Estudiante integra cambios</text><rect fill="#F1F1F1" height="33.9688" rx="12.5" ry="12.5" style="stroke:#181818;stroke-width:0.5;" width="204.752" x="32.4707" y="481.1836"/><text fill="#000000" font-family="sans-serif" font-size="12" lengthAdjust="spacing" textLength="184.752" x="42.4707" y="502.3223">Estudiante reenv&#237;a documento</text><rect fill="#F1F1F1" height="33.9688" rx="12.5" ry="12.5" style="stroke:#181818;stroke-width:0.5;" width="160.3672" x="54.6631" y="535.1523"/><text fill="#000000" font-family="sans-serif" font-size="12" lengthAdjust="spacing" textLength="140.3672" x="64.6631" y="556.291">Asesor vuelve a revisar</text><polygon fill="#F1F1F1" points="58.1099,378.8125,211.5835,378.8125,223.5835,390.8125,211.5835,402.8125,58.1099,402.8125,46.1099,390.8125,58.1099,378.8125" style="stroke:#181818;stroke-width:0.5;"/><text fill="#000000" font-family="sans-serif" font-size="11" lengthAdjust="spacing" textLength="13.7017" x="138.8467" y="413.0229">no</text><text fill="#000000" font-family="sans-serif" font-size="11" lengthAdjust="spacing" textLength="153.4736" x="58.1099" y="394.6206">&#191;Observaciones completas?</text><text fill="#000000" font-family="sans-serif" font-size="11" lengthAdjust="spacing" textLength="8.7871" x="223.5835" y="388.2183">s&#237;</text><ellipse cx="256.5835" cy="390.8125" fill="none" rx="11" ry="11" style="stroke:#222222;stroke-width:1;"/><ellipse cx="256.5835" cy="390.8125" fill="#222222" rx="6" ry="6" style="stroke:#222222;stroke-width:1;"/><ellipse cx="134.8467" cy="600.1211" fill="none" rx="11" ry="11" style="stroke:#222222;stroke-width:1;"/><ellipse cx="134.8467" cy="600.1211" fill="#222222" rx="6" ry="6" style="stroke:#222222;stroke-width:1;"/><line style="stroke:#181818;stroke-width:1;" x1="134.8467" x2="134.8467" y1="35" y2="55"/><polygon fill="#181818" points="130.8467,45,134.8467,55,138.8467,45,134.8467,49" style="stroke:#181818;stroke-width:1;"/><line style="stroke:#181818;stroke-width:1;" x1="134.8467" x2="134.8467" y1="88.9688" y2="108.9688"/><polygon fill="#181818" points="130.8467,98.9688,134.8467,108.9688,138.8467,98.9688,134.8467,102.9688" style="stroke:#181818;stroke-width:1;"/><line style="stroke:#181818;stroke-width:1;" x1="134.8467" x2="134.8467" y1="142.9375" y2="162.9375"/><polygon fill="#181818" points="130.8467,152.9375,134.8467,162.9375,138.8467,152.9375,134.8467,156.9375" style="stroke:#181818;stroke-width:1;"/><line style="stroke:#181818;stroke-width:1;" x1="134.8467" x2="134.8467" y1="196.9063" y2="216.9063"/><polygon fill="#181818" points="130.8467,206.9063,134.8467,216.9063,138.8467,206.9063,134.8467,210.9063" style="stroke:#181818;stroke-width:1;"/><line style="stroke:#181818;stroke-width:1;" x1="134.8467" x2="134.8467" y1="250.875" y2="270.875"/><polygon fill="#181818" points="130.8467,260.875,134.8467,270.875,138.8467,260.875,134.8467,264.875" style="stroke:#181818;stroke-width:1;"/><line style="stroke:#181818;stroke-width:1;" x1="134.8467" x2="134.8467" y1="304.8438" y2="324.8438"/><polygon fill="#181818" points="130.8467,314.8438,134.8467,324.8438,138.8467,314.8438,134.8467,318.8438" style="stroke:#181818;stroke-width:1;"/><line style="stroke:#181818;stroke-width:1;" x1="134.8467" x2="134.8467" y1="461.1836" y2="481.1836"/><polygon fill="#181818" points="130.8467,471.1836,134.8467,481.1836,138.8467,471.1836,134.8467,475.1836" style="stroke:#181818;stroke-width:1;"/><line style="stroke:#181818;stroke-width:1;" x1="134.8467" x2="134.8467" y1="515.1523" y2="535.1523"/><polygon fill="#181818" points="130.8467,525.1523,134.8467,535.1523,138.8467,525.1523,134.8467,529.1523" style="stroke:#181818;stroke-width:1;"/><line style="stroke:#181818;stroke-width:1;" x1="134.8467" x2="134.8467" y1="402.8125" y2="427.2148"/><polygon fill="#181818" points="130.8467,417.2148,134.8467,427.2148,138.8467,417.2148,134.8467,421.2148" style="stroke:#181818;stroke-width:1;"/><line style="stroke:#181818;stroke-width:1;" x1="223.5835" x2="245.5835" y1="390.8125" y2="390.8125"/><polygon fill="#181818" points="235.5835,386.8125,245.5835,390.8125,235.5835,394.8125,239.5835,390.8125" style="stroke:#181818;stroke-width:1;"/><line style="stroke:#181818;stroke-width:1;" x1="134.8467" x2="134.8467" y1="569.1211" y2="589.1211"/><polygon fill="#181818" points="130.8467,579.1211,134.8467,589.1211,138.8467,579.1211,134.8467,583.1211" style="stroke:#181818;stroke-width:1;"/><line style="stroke:#181818;stroke-width:1;" x1="134.8467" x2="134.8467" y1="358.8125" y2="378.8125"/><polygon fill="#181818" points="130.8467,368.8125,134.8467,378.8125,138.8467,368.8125,134.8467,372.8125" style="stroke:#181818;stroke-width:1;"/><?plantuml-src NP11QiD034NtFeMMpg8NQA2bq2wwwW5A5lBu9nNO8oED1tgeh7A0G7snZjs0tMo4q7_I_yWJMweUtpoDhN1C8DTEWYGcGnQNwHBtHOzvEZEr6iOUCIaDQXJK34fAhoOPXNfnU9ctyC1sOlecRWphreeijnSWQh4At3UYlkhuyzF6OPc3QCIiRc8QWZIu9-H8zS_rOpiiCVkXGs9_tb7wGgGwwguYsbwJKaws2V9VDk3k0Gjn2vj7T1bq-nZRh3qyqUTxWh4TQ5-XSr3jqtdszQH3XTZAiPhRNm00?></g></svg>