<svg xmlns="http://www.w3.org/2000/svg" xmlns:xlink="http://www.w3.org/1999/xlink" contentStyleType="text/css" data-diagram-type="CLASS" height="909px" preserveAspectRatio="none" style="width:221px;height:909px;background:#FFFFFF;" version="1.1" viewBox="0 0 221 909" width="221px" zoomAndPan="magnify"><?plantuml 1.2026.3beta6?><defs/><g><!--class User--><g class="entity" data-qualified-name="User" data-source-line="2" id="ent0002"><rect fill="#F1F1F1" height="129.4844" rx="2.5" ry="2.5" style="stroke:#181818;stroke-width:0.5;" width="199.0107" x="7" y="7"/><ellipse cx="86.3003" cy="23" fill="#ADD1B2" rx="11" ry="11" style="stroke:#181818;stroke-width:1;"/><path d="M89.269,28.6406 Q88.6909,28.9375 88.0503,29.0781 Q87.4097,29.2344 86.7065,29.2344 Q84.2065,29.2344 82.8784,27.5938 Q81.5659,25.9375 81.5659,22.8125 Q81.5659,19.6875 82.8784,18.0313 Q84.2065,16.375 86.7065,16.375 Q87.4097,16.375 88.0503,16.5313 Q88.7065,16.6875 89.269,16.9844 L89.269,19.7031 Q88.644,19.125 88.0503,18.8594 Q87.4565,18.5781 86.8315,18.5781 Q85.4878,18.5781 84.8003,19.6563 Q84.1128,20.7188 84.1128,22.8125 Q84.1128,24.9063 84.8003,25.9844 Q85.4878,27.0469 86.8315,27.0469 Q87.4565,27.0469 88.0503,26.7813 Q88.644,26.5 89.269,25.9219 L89.269,28.6406 Z " fill="#000000"/><text fill="#000000" font-family="sans-serif" font-size="14" lengthAdjust="spacing" textLength="31.9102" x="106.8003" y="27.8467">User</text><line style="stroke:#181818;stroke-width:0.5;" x1="8" x2="205.0107" y1="39" y2="39"/><g data-visibility-modifier="PUBLIC_FIELD"><ellipse cx="18" cy="52.6484" fill="none" rx="3" ry="3" style="stroke:#038048;stroke-width:1;"/></g><text fill="#000000" font-family="sans-serif" font-size="14" lengthAdjust="spacing" textLength="52.6299" x="27" y="55.9951">UUID id</text><g data-visibility-modifier="PUBLIC_FIELD"><ellipse cx="18" cy="68.9453" fill="none" rx="3" ry="3" style="stroke:#038048;stroke-width:1;"/></g><text fill="#000000" font-family="sans-serif" font-size="14" lengthAdjust="spacing" textLength="98.9707" x="27" y="72.292">string nombre</text><g data-visibility-modifier="PUBLIC_FIELD"><ellipse cx="18" cy="85.2422" fill="none" rx="3" ry="3" style="stroke:#038048;stroke-width:1;"/></g><text fill="#000000" font-family="sans-serif" font-size="14" lengthAdjust="spacing" textLength="89.5918" x="27" y="88.5889">string correo</text><g data-visibility-modifier="PUBLIC_FIELD"><ellipse cx="18" cy="101.5391" fill="none" rx="3" ry="3" style="stroke:#038048;stroke-width:1;"/></g><text fill="#000000" font-family="sans-serif" font-size="14" lengthAdjust="spacing" textLength="62.8496" x="27" y="104.8857">string rol</text><g data-visibility-modifier="PUBLIC_FIELD"><ellipse cx="18" cy="117.8359" fill="none" rx="3" ry="3" style="stroke:#038048;stroke-width:1;"/></g><text fill="#000000" font-family="sans-serif" font-size="14" lengthAdjust="spacing" textLength="173.0107" x="27" y="121.1826">datetime fecha_creacion</text><line style="stroke:#181818;stroke-width:0.5;" x1="8" x2="205.0107" y1="128.4844" y2="128.4844"/></g><!--class Thesis--><g class="entity" data-qualified-name="Thesis" data-source-line="9" id="ent0003"><rect fill="#F1F1F1" height="113.1875" rx="2.5" ry="2.5" style="stroke:#181818;stroke-width:0.5;" width="199.0107" x="7" y="196.48"/><ellipse cx="79.9976" cy="212.48" fill="#ADD1B2" rx="11" ry="11" style="stroke:#181818;stroke-width:1;"/><path d="M82.9663,218.1206 Q82.3882,218.4175 81.7476,218.5581 Q81.1069,218.7144 80.4038,218.7144 Q77.9038,218.7144 76.5757,217.0737 Q75.2632,215.4175 75.2632,212.2925 Q75.2632,209.1675 76.5757,207.5112 Q77.9038,205.855 80.4038,205.855 Q81.1069,205.855 81.7476,206.0112 Q82.4038,206.1675 82.9663,206.4644 L82.9663,209.1831 Q82.3413,208.605 81.7476,208.3394 Q81.1538,208.0581 80.5288,208.0581 Q79.1851,208.0581 78.4976,209.1362 Q77.8101,210.1987 77.8101,212.2925 Q77.8101,214.3862 78.4976,215.4644 Q79.1851,216.5269 80.5288,216.5269 Q81.1538,216.5269 81.7476,216.2612 Q82.3413,215.98 82.9663,215.4019 L82.9663,218.1206 Z " fill="#000000"/><text fill="#000000" font-family="sans-serif" font-size="14" lengthAdjust="spacing" textLength="44.5156" x="100.4976" y="217.3267">Thesis</text><line style="stroke:#181818;stroke-width:0.5;" x1="8" x2="205.0107" y1="228.48" y2="228.48"/><g data-visibility-modifier="PUBLIC_FIELD"><ellipse cx="18" cy="242.1284" fill="none" rx="3" ry="3" style="stroke:#038048;stroke-width:1;"/></g><text fill="#000000" font-family="sans-serif" font-size="14" lengthAdjust="spacing" textLength="52.6299" x="27" y="245.4751">UUID id</text><g data-visibility-modifier="PUBLIC_FIELD"><ellipse cx="18" cy="258.4253" fill="none" rx="3" ry="3" style="stroke:#038048;stroke-width:1;"/></g><text fill="#000000" font-family="sans-serif" font-size="14" lengthAdjust="spacing" textLength="80.835" x="27" y="261.772">string titulo</text><g data-visibility-modifier="PUBLIC_FIELD"><ellipse cx="18" cy="274.7222" fill="none" rx="3" ry="3" style="stroke:#038048;stroke-width:1;"/></g><text fill="#000000" font-family="sans-serif" font-size="14" lengthAdjust="spacing" textLength="96.8926" x="27" y="278.0689">UUID autor_id</text><g data-visibility-modifier="PUBLIC_FIELD"><ellipse cx="18" cy="291.0191" fill="none" rx="3" ry="3" style="stroke:#038048;stroke-width:1;"/></g><text fill="#000000" font-family="sans-serif" font-size="14" lengthAdjust="spacing" textLength="173.0107" x="27" y="294.3657">datetime fecha_creacion</text><line style="stroke:#181818;stroke-width:0.5;" x1="8" x2="205.0107" y1="301.6675" y2="301.6675"/></g><!--class Document--><g class="entity" data-qualified-name="Document" data-source-line="15" id="ent0004"><rect fill="#F1F1F1" height="129.4844" rx="2.5" ry="2.5" style="stroke:#181818;stroke-width:0.5;" width="159.834" x="26.59" y="369.67"/><ellipse cx="66.4771" cy="385.67" fill="#ADD1B2" rx="11" ry="11" style="stroke:#181818;stroke-width:1;"/><path d="M69.4459,391.3106 Q68.8677,391.6075 68.2271,391.7481 Q67.5865,391.9044 66.8834,391.9044 Q64.3834,391.9044 63.0552,390.2637 Q61.7427,388.6075 61.7427,385.4825 Q61.7427,382.3575 63.0552,380.7012 Q64.3834,379.045 66.8834,379.045 Q67.5865,379.045 68.2271,379.2012 Q68.8834,379.3575 69.4459,379.6544 L69.4459,382.3731 Q68.8209,381.795 68.2271,381.5294 Q67.6334,381.2481 67.0084,381.2481 Q65.6646,381.2481 64.9771,382.3262 Q64.2896,383.3887 64.2896,385.4825 Q64.2896,387.5762 64.9771,388.6544 Q65.6646,389.7169 67.0084,389.7169 Q67.6334,389.7169 68.2271,389.4512 Q68.8209,389.17 69.4459,388.5919 L69.4459,391.3106 Z " fill="#000000"/><text fill="#000000" font-family="sans-serif" font-size="14" lengthAdjust="spacing" textLength="72.5293" x="86.0076" y="390.5167">Document</text><line style="stroke:#181818;stroke-width:0.5;" x1="27.59" x2="185.424" y1="401.67" y2="401.67"/><g data-visibility-modifier="PUBLIC_FIELD"><ellipse cx="37.59" cy="415.3184" fill="none" rx="3" ry="3" style="stroke:#038048;stroke-width:1;"/></g><text fill="#000000" font-family="sans-serif" font-size="14" lengthAdjust="spacing" textLength="52.6299" x="46.59" y="418.6651">UUID id</text><g data-visibility-modifier="PUBLIC_FIELD"><ellipse cx="37.59" cy="431.6153" fill="none" rx="3" ry="3" style="stroke:#038048;stroke-width:1;"/></g><text fill="#000000" font-family="sans-serif" font-size="14" lengthAdjust="spacing" textLength="101.083" x="46.59" y="434.962">UUID thesis_id</text><g data-visibility-modifier="PUBLIC_FIELD"><ellipse cx="37.59" cy="447.9122" fill="none" rx="3" ry="3" style="stroke:#038048;stroke-width:1;"/></g><text fill="#000000" font-family="sans-serif" font-size="14" lengthAdjust="spacing" textLength="73.9785" x="46.59" y="451.2589">int version</text><g data-visibility-modifier="PUBLIC_FIELD"><ellipse cx="37.59" cy="464.2091" fill="none" rx="3" ry="3" style="stroke:#038048;stroke-width:1;"/></g><text fill="#000000" font-family="sans-serif" font-size="14" lengthAdjust="spacing" textLength="121.8027" x="46.59" y="467.5557">string archivo_url</text><g data-visibility-modifier="PUBLIC_FIELD"><ellipse cx="37.59" cy="480.5059" fill="none" rx="3" ry="3" style="stroke:#038048;stroke-width:1;"/></g><text fill="#000000" font-family="sans-serif" font-size="14" lengthAdjust="spacing" textLength="133.834" x="46.59" y="483.8526">text texto_extraido</text><line style="stroke:#181818;stroke-width:0.5;" x1="27.59" x2="185.424" y1="491.1544" y2="491.1544"/></g><!--class Review--><g class="entity" data-qualified-name="Review" data-source-line="22" id="ent0005"><rect fill="#F1F1F1" height="145.7813" rx="2.5" ry="2.5" style="stroke:#181818;stroke-width:0.5;" width="178.0518" x="17.48" y="559.15"/><ellipse cx="76.9663" cy="575.15" fill="#ADD1B2" rx="11" ry="11" style="stroke:#181818;stroke-width:1;"/><path d="M79.9351,580.7906 Q79.357,581.0875 78.7163,581.2281 Q78.0757,581.3844 77.3726,581.3844 Q74.8726,581.3844 73.5445,579.7438 Q72.232,578.0875 72.232,574.9625 Q72.232,571.8375 73.5445,570.1813 Q74.8726,568.525 77.3726,568.525 Q78.0757,568.525 78.7163,568.6813 Q79.3726,568.8375 79.9351,569.1344 L79.9351,571.8531 Q79.3101,571.275 78.7163,571.0094 Q78.1226,570.7281 77.4976,570.7281 Q76.1538,570.7281 75.4663,571.8063 Q74.7788,572.8688 74.7788,574.9625 Q74.7788,577.0563 75.4663,578.1344 Q76.1538,579.1969 77.4976,579.1969 Q78.1226,579.1969 78.7163,578.9313 Q79.3101,578.65 79.9351,578.0719 L79.9351,580.7906 Z " fill="#000000"/><text fill="#000000" font-family="sans-serif" font-size="14" lengthAdjust="spacing" textLength="50.5791" x="97.4663" y="579.9967">Review</text><line style="stroke:#181818;stroke-width:0.5;" x1="18.48" x2="194.5318" y1="591.15" y2="591.15"/><g data-visibility-modifier="PUBLIC_FIELD"><ellipse cx="28.48" cy="604.7984" fill="none" rx="3" ry="3" style="stroke:#038048;stroke-width:1;"/></g><text fill="#000000" font-family="sans-serif" font-size="14" lengthAdjust="spacing" textLength="52.6299" x="37.48" y="608.1451">UUID id</text><g data-visibility-modifier="PUBLIC_FIELD"><ellipse cx="28.48" cy="621.0953" fill="none" rx="3" ry="3" style="stroke:#038048;stroke-width:1;"/></g><text fill="#000000" font-family="sans-serif" font-size="14" lengthAdjust="spacing" textLength="130.2656" x="37.48" y="624.442">UUID document_id</text><g data-visibility-modifier="PUBLIC_FIELD"><ellipse cx="28.48" cy="637.3922" fill="none" rx="3" ry="3" style="stroke:#038048;stroke-width:1;"/></g><text fill="#000000" font-family="sans-serif" font-size="14" lengthAdjust="spacing" textLength="152.0518" x="37.48" y="640.7389">UUID autor_revisor_id</text><g data-visibility-modifier="PUBLIC_FIELD"><ellipse cx="28.48" cy="653.6891" fill="none" rx="3" ry="3" style="stroke:#038048;stroke-width:1;"/></g><text fill="#000000" font-family="sans-serif" font-size="14" lengthAdjust="spacing" textLength="71.4697" x="37.48" y="657.0357">string tipo</text><g data-visibility-modifier="PUBLIC_FIELD"><ellipse cx="28.48" cy="669.9859" fill="none" rx="3" ry="3" style="stroke:#038048;stroke-width:1;"/></g><text fill="#000000" font-family="sans-serif" font-size="14" lengthAdjust="spacing" textLength="101.7803" x="37.48" y="673.3326">text contenido</text><g data-visibility-modifier="PUBLIC_FIELD"><ellipse cx="28.48" cy="686.2828" fill="none" rx="3" ry="3" style="stroke:#038048;stroke-width:1;"/></g><text fill="#000000" font-family="sans-serif" font-size="14" lengthAdjust="spacing" textLength="92.0664" x="37.48" y="689.6295">string estado</text><line style="stroke:#181818;stroke-width:0.5;" x1="18.48" x2="194.5318" y1="696.9313" y2="696.9313"/></g><!--class Comment--><g class="entity" data-qualified-name="Comment" data-source-line="30" id="ent0006"><rect fill="#F1F1F1" height="129.4844" rx="2.5" ry="2.5" style="stroke:#181818;stroke-width:0.5;" width="137.46" x="37.78" y="764.94"/><ellipse cx="69.3707" cy="780.94" fill="#ADD1B2" rx="11" ry="11" style="stroke:#181818;stroke-width:1;"/><path d="M72.3394,786.5806 Q71.7613,786.8775 71.1207,787.0181 Q70.48,787.1744 69.7769,787.1744 Q67.2769,787.1744 65.9488,785.5337 Q64.6363,783.8775 64.6363,780.7525 Q64.6363,777.6275 65.9488,775.9712 Q67.2769,774.315 69.7769,774.315 Q70.48,774.315 71.1207,774.4712 Q71.7769,774.6275 72.3394,774.9244 L72.3394,777.6431 Q71.7144,777.065 71.1207,776.7994 Q70.5269,776.5181 69.9019,776.5181 Q68.5582,776.5181 67.8707,777.5962 Q67.1832,778.6587 67.1832,780.7525 Q67.1832,782.8462 67.8707,783.9244 Q68.5582,784.9869 69.9019,784.9869 Q70.5269,784.9869 71.1207,784.7212 Q71.7144,784.44 72.3394,783.8619 L72.3394,786.5806 Z " fill="#000000"/><text fill="#000000" font-family="sans-serif" font-size="14" lengthAdjust="spacing" textLength="68.5918" x="87.0575" y="785.7867">Comment</text><line style="stroke:#181818;stroke-width:0.5;" x1="38.78" x2="174.24" y1="796.94" y2="796.94"/><g data-visibility-modifier="PUBLIC_FIELD"><ellipse cx="48.78" cy="810.5884" fill="none" rx="3" ry="3" style="stroke:#038048;stroke-width:1;"/></g><text fill="#000000" font-family="sans-serif" font-size="14" lengthAdjust="spacing" textLength="52.6299" x="57.78" y="813.9351">UUID id</text><g data-visibility-modifier="PUBLIC_FIELD"><ellipse cx="48.78" cy="826.8853" fill="none" rx="3" ry="3" style="stroke:#038048;stroke-width:1;"/></g><text fill="#000000" font-family="sans-serif" font-size="14" lengthAdjust="spacing" textLength="106.2373" x="57.78" y="830.232">UUID review_id</text><g data-visibility-modifier="PUBLIC_FIELD"><ellipse cx="48.78" cy="843.1822" fill="none" rx="3" ry="3" style="stroke:#038048;stroke-width:1;"/></g><text fill="#000000" font-family="sans-serif" font-size="14" lengthAdjust="spacing" textLength="111.46" x="57.78" y="846.5289">UUID usuario_id</text><g data-visibility-modifier="PUBLIC_FIELD"><ellipse cx="48.78" cy="859.4791" fill="none" rx="3" ry="3" style="stroke:#038048;stroke-width:1;"/></g><text fill="#000000" font-family="sans-serif" font-size="14" lengthAdjust="spacing" textLength="68.7695" x="57.78" y="862.8257">text texto</text><g data-visibility-modifier="PUBLIC_FIELD"><ellipse cx="48.78" cy="875.7759" fill="none" rx="3" ry="3" style="stroke:#038048;stroke-width:1;"/></g><text fill="#000000" font-family="sans-serif" font-size="14" lengthAdjust="spacing" textLength="106.3398" x="57.78" y="879.1226">datetime fecha</text><line style="stroke:#181818;stroke-width:0.5;" x1="38.78" x2="174.24" y1="886.4244" y2="886.4244"/></g><!--link User to Thesis--><g class="link" data-entity-1="ent0002" data-entity-2="ent0003" data-link-type="association" data-source-line="37" id="lnk7"><path codeLine="37" d="M106.51,136.98 C106.51,156.28 106.51,177.28 106.51,196.01" fill="none" id="User-Thesis" style="stroke:#181818;stroke-width:1;"/><text fill="#000000" font-family="sans-serif" font-size="13" lengthAdjust="spacing" textLength="8.271" x="98.112" y="156.5548">1</text><text fill="#000000" font-family="sans-serif" font-size="13" lengthAdjust="spacing" textLength="6.5" x="100.1754" y="185.2163">*</text></g><!--link Thesis to Document--><g class="link" data-entity-1="ent0003" data-entity-2="ent0004" data-link-type="association" data-source-line="38" id="lnk8"><path codeLine="38" d="M106.51,309.84 C106.51,328.65 106.51,349.8 106.51,369.22" fill="none" id="Thesis-Document" style="stroke:#181818;stroke-width:1;"/><text fill="#000000" font-family="sans-serif" font-size="13" lengthAdjust="spacing" textLength="8.271" x="98.0396" y="329.7474">1</text><text fill="#000000" font-family="sans-serif" font-size="13" lengthAdjust="spacing" textLength="6.5" x="100.2267" y="358.7974">*</text></g><!--link Document to Review--><g class="link" data-entity-1="ent0004" data-entity-2="ent0005" data-link-type="association" data-source-line="39" id="lnk9"><path codeLine="39" d="M106.51,499.47 C106.51,518.41 106.51,539.28 106.51,558.71" fill="none" id="Document-Review" style="stroke:#181818;stroke-width:1;"/><text fill="#000000" font-family="sans-serif" font-size="13" lengthAdjust="spacing" textLength="8.271" x="98.1118" y="519.0263">1</text><text fill="#000000" font-family="sans-serif" font-size="13" lengthAdjust="spacing" textLength="6.5" x="100.2483" y="548.0791">*</text></g><!--link Review to Comment--><g class="link" data-entity-1="ent0005" data-entity-2="ent0006" data-link-type="association" data-source-line="40" id="lnk10"><path codeLine="40" d="M106.51,705.34 C106.51,724.82 106.51,745.75 106.51,764.75" fill="none" id="Review-Comment" style="stroke:#181818;stroke-width:1;"/><text fill="#000000" font-family="sans-serif" font-size="13" lengthAdjust="spacing" textLength="8.271" x="98.1421" y="725.1144">1</text><text fill="#000000" font-family="sans-serif" font-size="13" lengthAdjust="spacing" textLength="6.5" x="100.2092" y="753.9019">*</text></g><?plantuml-src XPB1JiCm38RlUGgh5oJG3Zm3lN15z5oPr5ijDV7a90K9yUuqNTP66XENAB4TV_x_v05QnfEYGnW8x8I10WHsvucFR74GasC1ka0AtmRWgUjUM-0XRqDKzYVmuZwKge0LLP8ge3Bbqu2H8Zk28zaHUwk4biMRdm9v7obmk8U97DCaMmvJ5Eql5VyrRiKcHpxUj5wtSSMMLhnKpQGXNz_Pg7RaMVgagv18Nn7o8lsoAFBYqvNrHZFJvz-aeSpHLx6B3brkXKtFflWi6ywAZ-GpQI-W4B52luYxhrBNkMfo2WcLfOHsJRUEBeJr0pJF3HmEq3msvQrCUR8gSVNQRAPNoOivfdXK9Shelm00?></g></svg>