<svg xmlns="http://www.w3.org/2000/svg" xmlns:xlink="http://www.w3.org/1999/xlink" contentStyleType="text/css" data-diagram-type="DESCRIPTION" height="555px" preserveAspectRatio="none" style="width:1376px;height:555px;background:#FFFFFF;" version="1.1" viewBox="0 0 1376 555" width="1376px" zoomAndPan="magnify"><?plantuml 1.2026.3beta6?><defs/><g><!--cluster Frontend (Next.js)--><g class="cluster" data-qualified-name="Frontend .Next.js." data-source-line="2" id="ent0002"><path d="M201.5,6 L347.7842,6 A3.75,3.75 0 0 1 350.2842,8.5 L357.2842,28.2969 L970.5,28.2969 A2.5,2.5 0 0 1 973,30.7969 L973,100.8 A2.5,2.5 0 0 1 970.5,103.3 L201.5,103.3 A2.5,2.5 0 0 1 199,100.8 L199,8.5 A2.5,2.5 0 0 1 201.5,6" fill="none" style="stroke:#000000;stroke-width:1.5;"/><line style="stroke:#000000;stroke-width:1.5;" x1="199" x2="357.2842" y1="28.2969" y2="28.2969"/><text fill="#000000" font-family="sans-serif" font-size="14" font-weight="700" lengthAdjust="spacing" textLength="145.2842" x="203" y="20.9951">Frontend (Next.js)</text></g><!--cluster API (FastAPI)--><g class="cluster" data-qualified-name="API .FastAPI." data-source-line="8" id="ent0007"><path d="M8.5,152.3 L113.8164,152.3 A3.75,3.75 0 0 1 116.3164,154.8 L123.3164,174.5969 L453.5,174.5969 A2.5,2.5 0 0 1 456,177.0969 L456,391.39 A2.5,2.5 0 0 1 453.5,393.89 L8.5,393.89 A2.5,2.5 0 0 1 6,391.39 L6,154.8 A2.5,2.5 0 0 1 8.5,152.3" fill="none" style="stroke:#000000;stroke-width:1.5;"/><line style="stroke:#000000;stroke-width:1.5;" x1="6" x2="123.3164" y1="174.5969" y2="174.5969"/><text fill="#000000" font-family="sans-serif" font-size="14" font-weight="700" lengthAdjust="spacing" textLength="104.3164" x="10" y="167.2951">API (FastAPI)</text></g><!--cluster Core--><g class="cluster" data-qualified-name="Core" data-source-line="15" id="ent0013"><path d="M1015.5,6 L1052.792,6 A3.75,3.75 0 0 1 1055.292,8.5 L1062.292,28.2969 L1275.5,28.2969 A2.5,2.5 0 0 1 1278,30.7969 L1278,100.8 A2.5,2.5 0 0 1 1275.5,103.3 L1015.5,103.3 A2.5,2.5 0 0 1 1013,100.8 L1013,8.5 A2.5,2.5 0 0 1 1015.5,6" fill="none" style="stroke:#000000;stroke-width:1.5;"/><line style="stroke:#000000;stroke-width:1.5;" x1="1013" x2="1062.292" y1="28.2969" y2="28.2969"/><text fill="#000000" font-family="sans-serif" font-size="14" font-weight="700" lengthAdjust="spacing" textLength="36.292" x="1017" y="20.9951">Core</text></g><!--cluster Servicios--><g class="cluster" data-qualified-name="Servicios" data-source-line="19" id="ent0016"><path d="M482.5,296.6 L554.9561,296.6 A3.75,3.75 0 0 1 557.4561,299.1 L564.4561,318.8969 L1112.5,318.8969 A2.5,2.5 0 0 1 1115,321.3969 L1115,391.39 A2.5,2.5 0 0 1 1112.5,393.89 L482.5,393.89 A2.5,2.5 0 0 1 480,391.39 L480,299.1 A2.5,2.5 0 0 1 482.5,296.6" fill="none" style="stroke:#000000;stroke-width:1.5;"/><line style="stroke:#000000;stroke-width:1.5;" x1="480" x2="564.4561" y1="318.8969" y2="318.8969"/><text fill="#000000" font-family="sans-serif" font-size="14" font-weight="700" lengthAdjust="spacing" textLength="71.4561" x="484" y="311.5951">Servicios</text></g><!--cluster Database--><g class="cluster" data-qualified-name="Database" data-source-line="24" id="ent0020"><path d="M966.5,442.89 L1042.0049,442.89 A3.75,3.75 0 0 1 1044.5049,445.39 L1051.5049,465.1869 L1358.5,465.1869 A2.5,2.5 0 0 1 1361,467.6869 L1361,537.69 A2.5,2.5 0 0 1 1358.5,540.19 L966.5,540.19 A2.5,2.5 0 0 1 964,537.69 L964,445.39 A2.5,2.5 0 0 1 966.5,442.89" fill="none" style="stroke:#000000;stroke-width:1.5;"/><line style="stroke:#000000;stroke-width:1.5;" x1="964" x2="1051.5049" y1="465.1869" y2="465.1869"/><text fill="#000000" font-family="sans-serif" font-size="14" font-weight="700" lengthAdjust="spacing" textLength="74.5049" x="968" y="457.8851">Database</text></g><!--entity UploadZone.jsx--><g class="entity" data-qualified-name="Frontend .Next.js..UploadZone.jsx" data-source-line="3" id="ent0003"><rect fill="#F1F1F1" height="46.2969" rx="2.5" ry="2.5" style="stroke:#181818;stroke-width:0.5;" width="148.6162" x="214.69" y="41"/><rect fill="#F1F1F1" height="10" style="stroke:#181818;stroke-width:0.5;" width="15" x="343.3062" y="46"/><rect fill="#F1F1F1" height="2" style="stroke:#181818;stroke-width:0.5;" width="4" x="341.3062" y="48"/><rect fill="#F1F1F1" height="2" style="stroke:#181818;stroke-width:0.5;" width="4" x="341.3062" y="52"/><text fill="#000000" font-family="sans-serif" font-size="14" lengthAdjust="spacing" textLength="108.6162" x="229.69" y="73.9951">UploadZone.jsx</text></g><!--entity PDFViewer.jsx--><g class="entity" data-qualified-name="Frontend .Next.js..PDFViewer.jsx" data-source-line="4" id="ent0004"><rect fill="#F1F1F1" height="46.2969" rx="2.5" ry="2.5" style="stroke:#181818;stroke-width:0.5;" width="139.0938" x="398.45" y="41"/><rect fill="#F1F1F1" height="10" style="stroke:#181818;stroke-width:0.5;" width="15" x="517.5438" y="46"/><rect fill="#F1F1F1" height="2" style="stroke:#181818;stroke-width:0.5;" width="4" x="515.5438" y="48"/><rect fill="#F1F1F1" height="2" style="stroke:#181818;stroke-width:0.5;" width="4" x="515.5438" y="52"/><text fill="#000000" font-family="sans-serif" font-size="14" lengthAdjust="spacing" textLength="99.0938" x="413.45" y="73.9951">PDFViewer.jsx</text></g><!--entity ThesisReviewPanel.jsx--><g class="entity" data-qualified-name="Frontend .Next.js..ThesisReviewPanel.jsx" data-source-line="5" id="ent0005"><rect fill="#F1F1F1" height="46.2969" rx="2.5" ry="2.5" style="stroke:#181818;stroke-width:0.5;" width="197.4111" x="572.29" y="41"/><rect fill="#F1F1F1" height="10" style="stroke:#181818;stroke-width:0.5;" width="15" x="749.7011" y="46"/><rect fill="#F1F1F1" height="2" style="stroke:#181818;stroke-width:0.5;" width="4" x="747.7011" y="48"/><rect fill="#F1F1F1" height="2" style="stroke:#181818;stroke-width:0.5;" width="4" x="747.7011" y="52"/><text fill="#000000" font-family="sans-serif" font-size="14" lengthAdjust="spacing" textLength="157.4111" x="587.29" y="73.9951">ThesisReviewPanel.jsx</text></g><!--entity ChatWindow.jsx--><g class="entity" data-qualified-name="Frontend .Next.js..ChatWindow.jsx" data-source-line="6" id="ent0006"><rect fill="#F1F1F1" height="46.2969" rx="2.5" ry="2.5" style="stroke:#181818;stroke-width:0.5;" width="152.1436" x="804.93" y="41"/><rect fill="#F1F1F1" height="10" style="stroke:#181818;stroke-width:0.5;" width="15" x="937.0736" y="46"/><rect fill="#F1F1F1" height="2" style="stroke:#181818;stroke-width:0.5;" width="4" x="935.0736" y="48"/><rect fill="#F1F1F1" height="2" style="stroke:#181818;stroke-width:0.5;" width="4" x="935.0736" y="52"/><text fill="#000000" font-family="sans-serif" font-size="14" lengthAdjust="spacing" textLength="112.1436" x="819.93" y="73.9951">ChatWindow.jsx</text></g><!--entity main.py--><g class="entity" data-qualified-name="API .FastAPI..main.py" data-source-line="9" id="ent0008"><rect fill="#F1F1F1" height="46.2969" rx="2.5" ry="2.5" style="stroke:#181818;stroke-width:0.5;" width="96.6016" x="343.7" y="187.3"/><rect fill="#F1F1F1" height="10" style="stroke:#181818;stroke-width:0.5;" width="15" x="420.3016" y="192.3"/><rect fill="#F1F1F1" height="2" style="stroke:#181818;stroke-width:0.5;" width="4" x="418.3016" y="194.3"/><rect fill="#F1F1F1" height="2" style="stroke:#181818;stroke-width:0.5;" width="4" x="418.3016" y="198.3"/><text fill="#000000" font-family="sans-serif" font-size="14" lengthAdjust="spacing" textLength="56.6016" x="358.7" y="220.2951">main.py</text></g><!--entity routers.auth--><g class="entity" data-qualified-name="API .FastAPI..routers.auth" data-source-line="10" id="ent0009"><rect fill="#F1F1F1" height="46.2969" rx="2.5" ry="2.5" style="stroke:#181818;stroke-width:0.5;" width="126.6113" x="21.69" y="187.3"/><rect fill="#F1F1F1" height="10" style="stroke:#181818;stroke-width:0.5;" width="15" x="128.3013" y="192.3"/><rect fill="#F1F1F1" height="2" style="stroke:#181818;stroke-width:0.5;" width="4" x="126.3013" y="194.3"/><rect fill="#F1F1F1" height="2" style="stroke:#181818;stroke-width:0.5;" width="4" x="126.3013" y="198.3"/><text fill="#000000" font-family="sans-serif" font-size="14" lengthAdjust="spacing" textLength="86.6113" x="36.69" y="220.2951">routers.auth</text></g><!--entity routers.chat--><g class="entity" data-qualified-name="API .FastAPI..routers.chat" data-source-line="11" id="ent0010"><rect fill="#F1F1F1" height="46.2969" rx="2.5" ry="2.5" style="stroke:#181818;stroke-width:0.5;" width="125.4355" x="183.28" y="187.3"/><rect fill="#F1F1F1" height="10" style="stroke:#181818;stroke-width:0.5;" width="15" x="288.7155" y="192.3"/><rect fill="#F1F1F1" height="2" style="stroke:#181818;stroke-width:0.5;" width="4" x="286.7155" y="194.3"/><rect fill="#F1F1F1" height="2" style="stroke:#181818;stroke-width:0.5;" width="4" x="286.7155" y="198.3"/><text fill="#000000" font-family="sans-serif" font-size="14" lengthAdjust="spacing" textLength="85.4355" x="198.28" y="220.2951">routers.chat</text></g><!--entity routers.documents--><g class="entity" data-qualified-name="API .FastAPI..routers.documents" data-source-line="12" id="ent0011"><rect fill="#F1F1F1" height="46.2969" rx="2.5" ry="2.5" style="stroke:#181818;stroke-width:0.5;" width="172.7266" x="21.64" y="331.6"/><rect fill="#F1F1F1" height="10" style="stroke:#181818;stroke-width:0.5;" width="15" x="174.3666" y="336.6"/><rect fill="#F1F1F1" height="2" style="stroke:#181818;stroke-width:0.5;" width="4" x="172.3666" y="338.6"/><rect fill="#F1F1F1" height="2" style="stroke:#181818;stroke-width:0.5;" width="4" x="172.3666" y="342.6"/><text fill="#000000" font-family="sans-serif" font-size="14" lengthAdjust="spacing" textLength="132.7266" x="36.64" y="364.5951">routers.documents</text></g><!--entity routers.thesis_review--><g class="entity" data-qualified-name="API .FastAPI..routers.thesis_review" data-source-line="13" id="ent0012"><rect fill="#F1F1F1" height="46.2969" rx="2.5" ry="2.5" style="stroke:#181818;stroke-width:0.5;" width="189.8574" x="229.07" y="331.6"/><rect fill="#F1F1F1" height="10" style="stroke:#181818;stroke-width:0.5;" width="15" x="398.9274" y="336.6"/><rect fill="#F1F1F1" height="2" style="stroke:#181818;stroke-width:0.5;" width="4" x="396.9274" y="338.6"/><rect fill="#F1F1F1" height="2" style="stroke:#181818;stroke-width:0.5;" width="4" x="396.9274" y="342.6"/><text fill="#000000" font-family="sans-serif" font-size="14" lengthAdjust="spacing" textLength="149.8574" x="244.07" y="364.5951">routers.thesis_review</text></g><!--entity auth.py--><g class="entity" data-qualified-name="Core.auth.py" data-source-line="16" id="ent0014"><rect fill="#F1F1F1" height="46.2969" rx="2.5" ry="2.5" style="stroke:#181818;stroke-width:0.5;" width="93.4365" x="1029.28" y="41"/><rect fill="#F1F1F1" height="10" style="stroke:#181818;stroke-width:0.5;" width="15" x="1102.7165" y="46"/><rect fill="#F1F1F1" height="2" style="stroke:#181818;stroke-width:0.5;" width="4" x="1100.7165" y="48"/><rect fill="#F1F1F1" height="2" style="stroke:#181818;stroke-width:0.5;" width="4" x="1100.7165" y="52"/><text fill="#000000" font-family="sans-serif" font-size="14" lengthAdjust="spacing" textLength="53.4365" x="1044.28" y="73.9951">auth.py</text></g><!--entity config.py--><g class="entity" data-qualified-name="Core.config.py" data-source-line="17" id="ent0015"><rect fill="#F1F1F1" height="46.2969" rx="2.5" ry="2.5" style="stroke:#181818;stroke-width:0.5;" width="104.4629" x="1157.77" y="41"/><rect fill="#F1F1F1" height="10" style="stroke:#181818;stroke-width:0.5;" width="15" x="1242.2329" y="46"/><rect fill="#F1F1F1" height="2" style="stroke:#181818;stroke-width:0.5;" width="4" x="1240.2329" y="48"/><rect fill="#F1F1F1" height="2" style="stroke:#181818;stroke-width:0.5;" width="4" x="1240.2329" y="52"/><text fill="#000000" font-family="sans-serif" font-size="14" lengthAdjust="spacing" textLength="64.4629" x="1172.77" y="73.9951">config.py</text></g><!--entity pdf_service.py--><g class="entity" data-qualified-name="Servicios.pdf_service.py" data-source-line="20" id="ent0017"><rect fill="#F1F1F1" height="46.2969" rx="2.5" ry="2.5" style="stroke:#181818;stroke-width:0.5;" width="141.4727" x="496.26" y="331.6"/><rect fill="#F1F1F1" height="10" style="stroke:#181818;stroke-width:0.5;" width="15" x="617.7327" y="336.6"/><rect fill="#F1F1F1" height="2" style="stroke:#181818;stroke-width:0.5;" width="4" x="615.7327" y="338.6"/><rect fill="#F1F1F1" height="2" style="stroke:#181818;stroke-width:0.5;" width="4" x="615.7327" y="342.6"/><text fill="#000000" font-family="sans-serif" font-size="14" lengthAdjust="spacing" textLength="101.4727" x="511.26" y="364.5951">pdf_service.py</text></g><!--entity gemini_service.py--><g class="entity" data-qualified-name="Servicios.gemini_service.py" data-source-line="21" id="ent0018"><rect fill="#F1F1F1" height="46.2969" rx="2.5" ry="2.5" style="stroke:#181818;stroke-width:0.5;" width="166.5605" x="672.72" y="331.6"/><rect fill="#F1F1F1" height="10" style="stroke:#181818;stroke-width:0.5;" width="15" x="819.2805" y="336.6"/><rect fill="#F1F1F1" height="2" style="stroke:#181818;stroke-width:0.5;" width="4" x="817.2805" y="338.6"/><rect fill="#F1F1F1" height="2" style="stroke:#181818;stroke-width:0.5;" width="4" x="817.2805" y="342.6"/><text fill="#000000" font-family="sans-serif" font-size="14" lengthAdjust="spacing" textLength="126.5605" x="687.72" y="364.5951">gemini_service.py</text></g><!--entity supabase_auth_service.py--><g class="entity" data-qualified-name="Servicios.supabase_auth_service.py" data-source-line="22" id="ent0019"><rect fill="#F1F1F1" height="46.2969" rx="2.5" ry="2.5" style="stroke:#181818;stroke-width:0.5;" width="224.5908" x="874.7" y="331.6"/><rect fill="#F1F1F1" height="10" style="stroke:#181818;stroke-width:0.5;" width="15" x="1079.2908" y="336.6"/><rect fill="#F1F1F1" height="2" style="stroke:#181818;stroke-width:0.5;" width="4" x="1077.2908" y="338.6"/><rect fill="#F1F1F1" height="2" style="stroke:#181818;stroke-width:0.5;" width="4" x="1077.2908" y="342.6"/><text fill="#000000" font-family="sans-serif" font-size="14" lengthAdjust="spacing" textLength="184.5908" x="889.7" y="364.5951">supabase_auth_service.py</text></g><!--entity supabase_repository.py--><g class="entity" data-qualified-name="Database.supabase_repository.py" data-source-line="25" id="ent0021"><rect fill="#F1F1F1" height="46.2969" rx="2.5" ry="2.5" style="stroke:#181818;stroke-width:0.5;" width="206.7285" x="979.64" y="477.89"/><rect fill="#F1F1F1" height="10" style="stroke:#181818;stroke-width:0.5;" width="15" x="1166.3685" y="482.89"/><rect fill="#F1F1F1" height="2" style="stroke:#181818;stroke-width:0.5;" width="4" x="1164.3685" y="484.89"/><rect fill="#F1F1F1" height="2" style="stroke:#181818;stroke-width:0.5;" width="4" x="1164.3685" y="488.89"/><text fill="#000000" font-family="sans-serif" font-size="14" lengthAdjust="spacing" textLength="166.7285" x="994.64" y="510.8851">supabase_repository.py</text></g><!--entity schemas.py--><g class="entity" data-qualified-name="Database.schemas.py" data-source-line="26" id="ent0022"><rect fill="#F1F1F1" height="46.2969" rx="2.5" ry="2.5" style="stroke:#181818;stroke-width:0.5;" width="123.6104" x="1221.19" y="477.89"/><rect fill="#F1F1F1" height="10" style="stroke:#181818;stroke-width:0.5;" width="15" x="1324.8004" y="482.89"/><rect fill="#F1F1F1" height="2" style="stroke:#181818;stroke-width:0.5;" width="4" x="1322.8004" y="484.89"/><rect fill="#F1F1F1" height="2" style="stroke:#181818;stroke-width:0.5;" width="4" x="1322.8004" y="488.89"/><text fill="#000000" font-family="sans-serif" font-size="14" lengthAdjust="spacing" textLength="83.6104" x="1236.19" y="510.8851">schemas.py</text></g><!--link UploadZone.jsx to main.py--><g class="link" data-entity-1="ent0003" data-entity-2="ent0008" data-link-type="dependency" data-source-line="28" id="lnk23"><path d="M305.09,87.7 C324.44,114.81 353.2343,155.1364 372.5343,182.1764" fill="none" id="UploadZone.jsx-to-main.py" style="stroke:#181818;stroke-width:1;"/><polygon fill="#181818" points="376.02,187.06,374.0472,177.4108,373.1152,182.9903,367.5357,182.0584,376.02,187.06" style="stroke:#181818;stroke-width:1;"/><text fill="#000000" font-family="sans-serif" font-size="13" lengthAdjust="spacing" textLength="33.4966" x="339" y="132.3669">HTTP</text></g><!--link PDFViewer.jsx to main.py--><g class="link" data-entity-1="ent0004" data-entity-2="ent0008" data-link-type="dependency" data-source-line="29" id="lnk24"><path d="M456.12,87.7 C441.85,114.81 420.8258,154.7112 406.5858,181.7512" fill="none" id="PDFViewer.jsx-to-main.py" style="stroke:#181818;stroke-width:1;"/><polygon fill="#181818" points="403.79,187.06,411.5229,180.9606,406.1198,182.636,404.4444,177.2329,403.79,187.06" style="stroke:#181818;stroke-width:1;"/><text fill="#000000" font-family="sans-serif" font-size="13" lengthAdjust="spacing" textLength="33.4966" x="440" y="132.3669">HTTP</text></g><!--link main.py to pdf_service.py--><g class="link" data-entity-1="ent0008" data-entity-2="ent0017" data-link-type="dependency" data-source-line="30" id="lnk25"><path d="M419.73,234 C452.5,260.64 502.0349,300.9145 534.7449,327.5145" fill="none" id="main.py-to-pdf_service.py" style="stroke:#181818;stroke-width:1;"/><polygon fill="#181818" points="539.4,331.3,534.9411,322.5183,535.5208,328.1454,529.8937,328.7251,539.4,331.3" style="stroke:#181818;stroke-width:1;"/><text fill="#000000" font-family="sans-serif" font-size="13" lengthAdjust="spacing" textLength="116.2129" x="475" y="276.6669">llamadas internas</text></g><!--link main.py to gemini_service.py--><g class="link" data-entity-1="ent0008" data-entity-2="ent0018" data-link-type="dependency" data-source-line="31" id="lnk26"><path d="M440.46,219.22 C495.13,229.42 585.46,250.63 655,288.6 C678.81,301.6 699.5094,314.8295 719.0194,328.0195" fill="none" id="main.py-to-gemini_service.py" style="stroke:#181818;stroke-width:1;"/><polygon fill="#181818" points="723.99,331.38,718.7744,323.0255,719.8478,328.5796,714.2937,329.6531,723.99,331.38" style="stroke:#181818;stroke-width:1;"/><text fill="#000000" font-family="sans-serif" font-size="13" lengthAdjust="spacing" textLength="75.6704" x="636" y="276.6669">llamadas IA</text></g><!--link main.py to supabase_repository.py--><g class="link" data-entity-1="ent0008" data-entity-2="ent0021" data-link-type="dependency" data-source-line="32" id="lnk27"><path d="M440.62,212.95 C595.51,218.23 1069.88,238.4 1115,288.6 C1162.9,341.88 1123.3187,429.7633 1099.4887,472.3733" fill="none" id="main.py-to-supabase_repository.py" style="stroke:#181818;stroke-width:1;"/><polygon fill="#181818" points="1096.56,477.61,1104.4441,471.7074,1099.0006,473.2461,1097.4619,467.8025,1096.56,477.61" style="stroke:#181818;stroke-width:1;"/><text fill="#000000" font-family="sans-serif" font-size="13" lengthAdjust="spacing" textLength="78.8125" x="1137" y="359.3069">persistencia</text></g><!--link gemini_service.py to supabase_repository.py--><g class="link" data-entity-1="ent0018" data-entity-2="ent0021" data-link-type="dependency" data-source-line="33" id="lnk28"><path d="M804.98,378.35 C821.47,385.9 840.01,394.32 857,401.89 C916.2,428.27 978.9672,455.4317 1024.8472,475.1417" fill="none" id="gemini_service.py-to-supabase_repository.py" style="stroke:#181818;stroke-width:1;"/><polygon fill="#181818" points="1030.36,477.51,1023.6696,470.2823,1025.766,475.5364,1020.5119,477.6328,1030.36,477.51" style="stroke:#181818;stroke-width:1;"/><text fill="#000000" font-family="sans-serif" font-size="13" lengthAdjust="spacing" textLength="100.2041" x="913" y="422.9569">guarda reviews</text></g><?plantuml-src XLBBJiCm4BptArQzK0xj1t10gbfLz88YA221KBN4syIGsCRhz274lxD9qxG9LDpisPqPhsSlOAenyPWZA0A7dmK5OZbdm9e32JvEo0I2ErfhjXxcuvx3-0CJWlxCMoaP1ODRseRHEr_suQi7yFBWCelgsHeISFjQGj5qzgXfGxv15Yc9HwbBcmWDPKrbac9uqaRPpHxwFbgEepaCPiX13WUt7BKPkLr5zRO8v7c4HKXRG2oQBK3PkCXbD6wXeNhKqbUlQZbFhAVQi1G_6CRMh7HItKwQxyclTQmjrmodLakkC3eG4ygrqLsK2uTloBGiFLh54_KfXggf5cyudfnb7QpVDN9nAXboBT3D1OR3w-FtmHNSB1PHhnFLcQO6gCgT-QGhosIf539eMH5laBkKt_EVicJDElrdfXIIa-3APJMnnjvVkl_mamAzGjXdpZy0?></g></svg>